<?xml version="1.0" encoding="UTF-8"?>
<svg id="Layer_2" data-name="Layer 2" xmlns="http://www.w3.org/2000/svg" viewBox="0 0 264.04 31.63">
  <defs>
    <style>
      .cls-1 {
        fill: #fff;
      }
    </style>
  </defs>
  <g id="Layer_1-2" data-name="Layer 1">
    <g>
      <g>
        <path class="cls-1" d="M0,18.33c.01-.18,1.46-1.66,2.09-1.47.6.18.7,1.06,1.27,1.35,14.95,7.3,35.39,1.84,44.61-12.04.34-.51-.1-1.59.6-1.81.74-.22,1.78.16,2.48.4.11.75-.21,1.3-.26,1.91-.96,10.92-8.39,20.08-18.42,23.47-10.95,3.7-22.75.26-30.03-8.46-.78-.93-1.32-1.79-2.13-2.63-.19-.2-.24-.46-.22-.73Z"/>
        <ellipse class="cls-1" cx="10.24" cy="11.88" rx="4.26" ry="4.25"/>
        <ellipse class="cls-1" cx="38.8" cy="4.25" rx="4.26" ry="4.25"/>
      </g>
      <g>
        <path class="cls-1" d="M78.21,21.72c-.95.78-2.11,1.18-3.46,1.18-1.18,0-2.23-.29-3.13-.89-.91-.59-1.62-1.42-2.13-2.49-.51-1.07-.77-2.32-.77-3.77s.25-2.69.75-3.74c.5-1.05,1.21-1.86,2.12-2.43.91-.57,1.96-.86,3.16-.86,1.38,0,2.53.39,3.48,1.18.94.78,1.53,1.9,1.76,3.34h3.2c-.18-1.45-.65-2.71-1.43-3.79-.78-1.08-1.77-1.93-2.97-2.52-1.21-.6-2.56-.9-4.06-.9-1.36,0-2.6.24-3.74.71-1.14.48-2.12,1.15-2.96,2.02-.84.87-1.49,1.9-1.94,3.08-.46,1.18-.69,2.49-.69,3.91s.23,2.74.7,3.94c.47,1.2,1.12,2.24,1.96,3.12.84.88,1.82,1.56,2.96,2.05,1.14.48,2.38.73,3.71.73,1.5,0,2.85-.3,4.06-.89,1.21-.59,2.2-1.43,2.97-2.51.78-1.08,1.27-2.35,1.48-3.79h-3.25c-.23,1.43-.82,2.53-1.77,3.32Z"/>
        <path class="cls-1" d="M90.38,12.48c-.6.47-1.05,1.12-1.38,1.93v-2.56h-3.09v13.48h3.2v-7.03c0-1.27.32-2.2.96-2.79.64-.59,1.61-.89,2.9-.89.23,0,.42,0,.58.01.16,0,.28.03.37.07v-3.01c-.16-.07-.42-.11-.79-.11-1.08,0-1.99.3-2.75.9Z"/>
        <rect class="cls-1" x="95.96" y="11.85" width="3.2" height="13.48"/>
        <path class="cls-1" d="M107.03,7.59l-3.2,1.19v3.07h-2.62v2.51h2.62v6.64c0,1.53.39,2.68,1.16,3.45.78.77,1.97,1.15,3.6,1.15.48,0,.9-.03,1.28-.09.38-.06.67-.14.86-.22v-2.51c-.19.07-.41.13-.65.19-.24.05-.51.08-.81.08-.78,0-1.34-.16-1.71-.49-.36-.33-.54-.82-.54-1.49v-6.69h3.7v-2.51h-3.7v-4.26Z"/>
        <rect class="cls-1" x="113.2" y="11.85" width="3.2" height="13.48"/>
        <path class="cls-1" d="M123.86,14.69c.54-.36,1.18-.54,1.92-.54.81,0,1.49.21,2.05.63.56.42.93,1,1.12,1.75h3.04c-.16-.99-.52-1.85-1.1-2.59-.57-.74-1.3-1.32-2.18-1.73-.88-.41-1.88-.62-2.99-.62-1.34,0-2.52.3-3.54.9-1.02.6-1.83,1.42-2.42,2.47-.59,1.05-.89,2.25-.89,3.61s.29,2.57.89,3.64c.59,1.07,1.4,1.9,2.42,2.5,1.02.6,2.2.9,3.54.9,1.09,0,2.08-.21,2.96-.62.88-.41,1.61-.99,2.19-1.73s.95-1.6,1.11-2.59h-3.04c-.19.74-.57,1.32-1.14,1.75-.56.42-1.24.63-2.04.63-.72,0-1.36-.19-1.9-.56-.55-.37-.97-.89-1.26-1.56-.29-.67-.44-1.45-.44-2.35s.15-1.68.44-2.34c.29-.66.7-1.17,1.24-1.53Z"/>
        <path class="cls-1" d="M145.51,22.66v-6.16c0-1.6-.47-2.82-1.4-3.66-.93-.84-2.32-1.26-4.15-1.26s-3.16.38-4.2,1.15-1.63,1.78-1.77,3.05h3.04c.11-.58.4-1.03.89-1.33.48-.31,1.13-.46,1.94-.46s1.47.19,1.88.58.61.95.61,1.69v.65l-3.65.57c-1.64.25-2.9.73-3.78,1.44-.88.71-1.32,1.69-1.32,2.92,0,1.15.4,2.06,1.2,2.74.8.68,1.88,1.02,3.24,1.02,1.16,0,2.15-.25,2.95-.75.65-.41,1.15-.98,1.5-1.69,0,.38.02.74.04,1.03.04.41.1.8.19,1.15h3.15c-.11-.49-.19-.96-.25-1.39-.06-.43-.09-.86-.09-1.28ZM141.36,22.42c-.65.49-1.46.74-2.43.74-.69,0-1.22-.14-1.6-.42-.38-.28-.57-.7-.57-1.24,0-.58.2-1.03.61-1.35.41-.32,1.02-.55,1.85-.69l3.12-.49v1.65c0,.71-.33,1.3-.98,1.8Z"/>
        <rect class="cls-1" x="148.97" y="6.29" width="3.2" height="19.04"/>
        <path class="cls-1" d="M172.65,15.68c-.3-.17-.61-.29-.94-.4.22-.07.43-.16.64-.26.72-.37,1.29-.9,1.72-1.59.42-.69.63-1.49.63-2.41,0-1.46-.52-2.62-1.55-3.46-1.03-.85-2.4-1.27-4.11-1.27h-8.22v19.04h8.57c1.18,0,2.21-.21,3.08-.63.87-.42,1.55-1.02,2.04-1.8.48-.78.73-1.67.73-2.7s-.23-1.92-.7-2.7c-.47-.78-1.09-1.38-1.88-1.82ZM168.46,8.73c.97,0,1.71.23,2.21.69.5.46.75,1.12.75,1.98s-.26,1.56-.79,2.04c-.53.48-1.29.71-2.27.71h-4.26v-5.42h4.36ZM171.07,22.07c-.55.56-1.32.83-2.33.83h-4.65v-6.32h4.52c1.02,0,1.82.29,2.41.87.58.58.87,1.37.87,2.35s-.27,1.71-.82,2.26Z"/>
        <path class="cls-1" d="M188.97,22.66v-6.16c0-1.6-.47-2.82-1.4-3.66-.93-.84-2.32-1.26-4.15-1.26s-3.16.38-4.2,1.15-1.63,1.78-1.77,3.05h3.04c.11-.58.4-1.03.89-1.33.48-.31,1.13-.46,1.94-.46s1.47.19,1.88.58.61.95.61,1.69v.65l-3.65.57c-1.64.25-2.9.73-3.78,1.44-.88.71-1.32,1.69-1.32,2.92,0,1.15.4,2.06,1.2,2.74.8.68,1.88,1.02,3.24,1.02,1.16,0,2.15-.25,2.95-.75.65-.41,1.15-.98,1.5-1.69,0,.38.02.74.04,1.03.04.41.1.8.19,1.15h3.15c-.11-.49-.19-.96-.25-1.39-.06-.43-.09-.86-.09-1.28ZM184.82,22.42c-.65.49-1.46.74-2.43.74-.69,0-1.22-.14-1.6-.42-.38-.28-.57-.7-.57-1.24,0-.58.2-1.03.61-1.35.41-.32,1.02-.55,1.85-.69l3.12-.49v1.65c0,.71-.33,1.3-.98,1.8Z"/>
        <path class="cls-1" d="M200.48,11.58c-1.22,0-2.27.3-3.17.89-.76.5-1.34,1.14-1.77,1.92v-2.54h-3.09v13.48h3.2v-7.27c0-.78.16-1.45.48-2.02s.76-1.02,1.32-1.35c.56-.33,1.22-.49,1.96-.49.83,0,1.46.22,1.9.65.44.43.66,1.07.66,1.92v8.57h3.17v-9.23c0-1.38-.41-2.47-1.23-3.29-.82-.82-1.96-1.23-3.42-1.23Z"/>
        <path class="cls-1" d="M219.57,22.66v-6.16c0-1.6-.47-2.82-1.4-3.66s-2.32-1.26-4.15-1.26-3.17.38-4.2,1.15c-1.04.77-1.63,1.78-1.77,3.05h3.04c.11-.58.4-1.03.89-1.33.48-.31,1.13-.46,1.94-.46s1.47.19,1.88.58c.41.39.61.95.61,1.69v.65l-3.65.57c-1.64.25-2.9.73-3.78,1.44-.88.71-1.32,1.69-1.32,2.92,0,1.15.4,2.06,1.2,2.74s1.88,1.02,3.24,1.02c1.16,0,2.15-.25,2.95-.75.65-.41,1.15-.98,1.5-1.7,0,.39.02.74.05,1.03.04.41.1.8.18,1.15h3.15c-.11-.49-.19-.96-.25-1.39-.06-.43-.09-.86-.09-1.28ZM215.42,22.42c-.65.49-1.46.74-2.43.74-.69,0-1.22-.14-1.6-.42-.38-.28-.57-.7-.57-1.24,0-.58.2-1.03.61-1.35.41-.32,1.02-.55,1.85-.69l3.12-.49v1.65c0,.71-.33,1.3-.98,1.8Z"/>
        <path class="cls-1" d="M231.07,11.58c-1.22,0-2.27.3-3.17.89-.76.5-1.34,1.14-1.77,1.92v-2.54h-3.09v13.48h3.2v-7.27c0-.78.16-1.45.48-2.02s.76-1.02,1.32-1.35c.56-.33,1.22-.49,1.96-.49.83,0,1.46.22,1.9.65.44.43.66,1.07.66,1.92v8.57h3.17v-9.23c0-1.38-.41-2.47-1.23-3.29-.82-.82-1.96-1.23-3.42-1.23Z"/>
        <path class="cls-1" d="M250.16,22.66v-6.16c0-1.6-.47-2.82-1.4-3.66s-2.32-1.26-4.15-1.26-3.16.38-4.2,1.15-1.63,1.78-1.77,3.05h3.04c.11-.58.4-1.03.89-1.33.48-.31,1.13-.46,1.94-.46s1.47.19,1.88.58.61.95.61,1.69v.65l-3.65.57c-1.64.25-2.9.73-3.78,1.44-.88.71-1.32,1.69-1.32,2.92,0,1.15.4,2.06,1.2,2.74.8.68,1.88,1.02,3.24,1.02,1.16,0,2.15-.25,2.95-.75.65-.41,1.15-.98,1.5-1.69,0,.38.02.74.05,1.03.04.41.1.8.18,1.15h3.15c-.11-.49-.19-.96-.25-1.39-.06-.43-.09-.86-.09-1.28ZM246.01,22.42c-.65.49-1.46.74-2.43.74-.69,0-1.22-.14-1.6-.42-.38-.28-.57-.7-.57-1.24,0-.58.2-1.03.61-1.35.41-.32,1.02-.55,1.85-.69l3.12-.49v1.65c0,.71-.33,1.3-.98,1.8Z"/>
        <path class="cls-1" d="M263.04,18.97c-.67-.73-1.66-1.25-2.96-1.55l-2.3-.53c-.72-.18-1.24-.39-1.55-.65-.31-.26-.46-.57-.46-.94,0-.46.2-.82.59-1.07s.98-.38,1.76-.38c.83,0,1.48.15,1.96.45.48.3.76.73.85,1.3h2.91c-.11-1.25-.66-2.23-1.67-2.95s-2.33-1.07-3.97-1.07-2.96.35-3.91,1.06c-.95.71-1.43,1.68-1.43,2.93,0,1,.35,1.85,1.06,2.53.7.68,1.78,1.18,3.23,1.49l2.17.5c.71.16,1.19.37,1.44.62.25.26.38.58.38.96,0,.53-.22.93-.66,1.22-.44.28-1.1.42-1.98.42-.97,0-1.74-.19-2.3-.56s-.9-.91-1-1.61h-2.91c.11,1.39.71,2.48,1.8,3.27,1.09.78,2.56,1.18,4.42,1.18,1.75,0,3.11-.35,4.08-1.06.98-.7,1.47-1.68,1.47-2.93,0-1.02-.34-1.9-1-2.63Z"/>
      </g>
    </g>
    <path class="cls-1" d="M98.37,6.22l-.43.43c-.21.21-.55.21-.76,0l-.43-.43c-.18-.18-.48-.18-.67,0l-.05.05c-.18.18-.18.48,0,.67l.43.43c.21.21.21.55,0,.76l-.43.43c-.18.18-.18.48,0,.67l.05.05c.18.18.48.18.67,0l.43-.43c.21-.21.55-.21.76,0l.43.43c.18.18.48.18.67,0l.05-.05c.18-.18.18-.48,0-.67l-.43-.43c-.21-.21-.21-.55,0-.76l.43-.43c.18-.18.18-.48,0-.67l-.05-.05c-.18-.18-.48-.18-.67,0Z"/>
    <path class="cls-1" d="M115.61,6.22l-.43.43c-.21.21-.55.21-.76,0l-.43-.43c-.18-.18-.48-.18-.67,0l-.05.05c-.18.18-.18.48,0,.67l.43.43c.21.21.21.55,0,.76l-.43.43c-.18.18-.18.48,0,.67l.05.05c.18.18.48.18.67,0l.43-.43c.21-.21.55-.21.76,0l.43.43c.18.18.48.18.67,0l.05-.05c.18-.18.18-.48,0-.67l-.43-.43c-.21-.21-.21-.55,0-.76l.43-.43c.18-.18.18-.48,0-.67l-.05-.05c-.18-.18-.48-.18-.67,0Z"/>
  </g>
</svg>